<?xml version="1.0" encoding="utf-8"?>
<!-- Generator: Adobe Illustrator 22.0.1, SVG Export Plug-In . SVG Version: 6.00 Build 0)  -->
<svg version="1.1" id="Layer_1" xmlns="http://www.w3.org/2000/svg" xmlns:xlink="http://www.w3.org/1999/xlink" x="0px" y="0px"
	 viewBox="0 0 1331.7 317.8" style="enable-background:new 0 0 1331.7 317.8;" xml:space="preserve">
<style type="text/css">
	.st0{fill:#FFFFFF;}
	.st1{fill:#B4B4B4;}
</style>
<path class="st0" d="M67,163.5c2.1,8.2,6.9,14.7,12.4,21.1c8.7,10,8.8,25.3,0.1,35.3C73.9,226.4,69,233,67,241.5
	C67,215.5,67,189.5,67,163.5z"/>
<path class="st0" d="M101,275.5c8.2-2.1,14.8-6.8,21.1-12.4c10.1-9,25.6-9,35.7,0.1c6.3,5.7,12.9,10.2,21.2,12.3
	C153,275.5,127,275.5,101,275.5z"/>
<path class="st0" d="M67,77.5c2,8.3,6.6,14.8,12.2,21.2c9,10.3,9.1,25.6,0.2,35.7c-5.6,6.4-10.3,12.9-12.4,21.1
	C67,129.5,67,103.5,67,77.5z"/>
<path class="st0" d="M67,249.5c0.7,2,1.4,4,2.2,5.9c3.6,9.6,10.5,15.7,20.2,18.8c1.2,0.4,2.4,0.9,3.6,1.3c-8.7,0-17.3,0-26,0
	C67,266.8,67,258.2,67,249.5z"/>
<path class="st0" d="M93,43.5c-2,0.7-4,1.4-5.9,2.1c-9.7,3.6-15.7,10.5-18.7,20.3c-0.4,1.2-0.9,2.4-1.3,3.6c0-8.7,0-17.3,0-26
	C75.7,43.5,84.3,43.5,93,43.5z"/>
<g>
	<path class="st1" d="M272,40.1c1.4,0.5,2.8,1,4.2,1.3c11.5,3.2,20.6,13.6,21.6,24.9c1.3,13.7-4.9,25.3-16.4,31
		c-11,5.4-25,3.9-33.4-5.1c-12.7-13.7-32.4-13.3-45-0.1c-11.2,11.8-29.6,10.9-41.8-0.9c-8-7.8-17.2-11.2-28.2-8.5
		c-17.9,4.4-33.5,28.4-16.9,49.1c4.8,6,9.8,11.8,10.7,19.9c1.1,10.2-2.1,18.8-9.2,26.4c-15.8,16.9-8,44.1,14.3,50.4
		c11.5,3.3,21.3-0.4,29.8-8.3c6.3-5.8,13.6-8.7,22.3-8.4c14.9,0.6,26.2,11,28.6,26.4c2.1,13.2-6.7,27.1-20,31.7
		c-1.9,0.6-3.7,1.4-5.5,2c-2.7,0-5.3,0-8,0c-8.2-2.1-14.8-6.7-21.2-12.3c-10.1-9-25.5-9-35.7-0.1c-6.4,5.6-12.9,10.3-21.1,12.4
		c-2.7,0-5.3,0-8,0c-1.2-0.4-2.4-0.9-3.6-1.3c-9.7-3-16.6-9.1-20.2-18.8c-0.7-2-1.4-4-2.2-5.9c0-2.7,0-5.3,0-8
		c2-8.5,6.9-15.1,12.5-21.6c8.7-10,8.6-25.3-0.1-35.3c-5.6-6.4-10.3-12.9-12.4-21.1c0-2.7,0-5.3,0-8c2.2-8.2,6.8-14.8,12.4-21.1
		c8.9-10.1,8.8-25.4-0.2-35.7C73.6,88.9,69,82.4,67,74.1c0-2.7,0-5.3,0-8c0.4-1.2,0.9-2.4,1.3-3.6c3-9.7,9-16.7,18.7-20.3
		c2-0.7,4-1.4,5.9-2.1c2.7,0,5.3,0,8,0c8,2.1,14.5,6.5,20.8,11.9c10.1,8.7,24.7,8.7,35.4,0.4c6.7-5.2,13.3-10.3,21.8-12.3
		c2.7,0,5.3,0,8,0c8,2.3,14.4,6.9,20.7,12.2c10,8.4,24.5,8.4,35.1,0.1c6.6-5.1,13-10.2,21.2-12.3C266.7,40.1,269.3,40.1,272,40.1z"
		/>
	<path class="st1" d="M258,242.4c0-6,4.5-10.3,10.4-10.2c5.5,0.1,10.1,4.7,10.2,10.1c0.1,5.6-4.7,10.5-10.4,10.5
		C262.4,252.9,258,248.4,258,242.4z"/>
	<path class="st1" d="M258,158.3c0.1-6,4.4-10.2,10.5-10.1c5.6,0.1,10.1,4.7,10.1,10.2c0,5.6-4.9,10.5-10.5,10.5
		C262.4,168.8,258,164.1,258,158.3z"/>
	<path class="st1" d="M192.9,159.2c0,5.9-4.5,10.4-10.3,10.3c-5.7-0.1-10.5-5-10.3-10.6c0.2-5.5,4.7-9.9,10.3-10
		C188.6,148.8,193,153.2,192.9,159.2z"/>
</g>
<g>
	<path class="st1" d="M408.9,213.9c5.5,0,10.7-1.1,15.6-3.2c4.9-2.2,10.1-5.1,15.6-8.9l15.5,15.8c-8.1,6.7-15.8,11.3-23.1,13.8
		c-7.3,2.5-15.2,3.7-23.6,3.7c-9.5,0-18.3-1.7-26.4-5c-8.1-3.4-15.1-7.9-21.1-13.7c-5.9-5.8-10.6-12.6-14-20.4
		c-3.4-7.8-5-16.2-5-25.2c0-9.5,1.7-18.3,5-26.5c3.4-8.2,8-15.3,14-21.3c5.9-6,13-10.7,21.1-14.1c8.1-3.4,16.9-5,26.4-5
		c8.3,0,16.2,1.4,23.8,4.1c7.6,2.8,15.2,7.2,23,13.4l-15.5,15.8c-5-3.4-10.1-6.3-15.2-8.7c-5.2-2.3-10.5-3.5-16-3.5
		c-6,0-11.8,1.2-17.3,3.6c-5.5,2.4-10.3,5.7-14.5,9.9c-4.1,4.2-7.4,9.1-9.8,14.6c-2.4,5.5-3.6,11.4-3.6,17.6
		c0,5.7,1.2,11.1,3.6,16.3c2.4,5.2,5.7,9.7,9.8,13.7c4.1,4,9,7.2,14.5,9.6C397.1,212.7,402.9,213.9,408.9,213.9z"/>
	<path class="st1" d="M523.9,235.1c-8.8,0-17.1-1.6-25.1-4.9c-7.9-3.3-14.9-7.8-20.8-13.7c-5.9-5.9-10.7-12.8-14.2-20.8
		c-3.5-8-5.3-16.7-5.3-26c0-8.8,1.8-17.2,5.3-25.2c3.5-8,8.3-15,14.2-21.1c5.9-6,12.9-10.8,20.8-14.3c7.9-3.5,16.3-5.3,25.1-5.3
		c8.8,0,17.2,1.8,25.2,5.3c8,3.5,15,8.3,21.1,14.3c6,6,10.8,13,14.3,21.1c3.5,8,5.3,16.4,5.3,25.2c0,9.3-1.8,18-5.3,26
		c-3.5,8-8.3,14.9-14.3,20.8c-6,5.9-13.1,10.4-21.1,13.7C541.1,233.4,532.7,235.1,523.9,235.1z M523.9,125.7
		c-6.4,0-12.2,1.2-17.4,3.6c-5.3,2.4-9.8,5.6-13.7,9.7c-3.9,4.1-6.9,8.7-9,14c-2.2,5.3-3.2,10.8-3.2,16.7c0,6.2,1.1,12,3.2,17.3
		c2.2,5.3,5.2,9.9,9,13.8c3.9,3.9,8.4,6.9,13.7,9c5.3,2.2,11.1,3.2,17.4,3.2c6.4,0,12.2-1.1,17.6-3.2c5.3-2.2,9.9-5.2,13.8-9
		c3.9-3.9,6.9-8.5,9-13.8c2.2-5.3,3.2-11.1,3.2-17.3c0-5.9-1.1-11.4-3.2-16.7c-2.2-5.3-5.1-9.9-8.9-14c-3.8-4-8.4-7.3-13.8-9.7
		C536.2,126.9,530.3,125.7,523.9,125.7z"/>
	<path class="st1" d="M627,65v22h-22.7V65H627z M604.3,104.5H627v129.2h-22.7V104.5z"/>
	<path class="st1" d="M671.5,234h-22.7V104.8h22.7l0.3,15.5c1-1.6,2.5-3.4,4.5-5.4c2-2.1,4.3-4,7-5.8c2.7-1.8,5.8-3.4,9.4-4.7
		c3.6-1.3,7.7-1.9,12.1-1.9c9.3,0,17.3,1.8,23.9,5.3c6.6,3.5,12.1,8.3,16.3,14.2c4.2,5.9,7.3,12.8,9.3,20.7c2,7.8,3,16,3,24.4V234
		h-23v-67.4c0-4.7-0.4-9.5-1.2-14.5c-0.8-5-2.2-9.5-4.4-13.6c-2.2-4-5.1-7.4-8.9-10.1c-3.8-2.7-8.8-4-15-4c-5.5,0-10.3,1.1-14.5,3.4
		c-4.1,2.2-7.6,5.3-10.5,9c-2.8,3.8-5,8.2-6.3,13.3c-1.4,5.1-2.1,10.5-2.1,16.2V234z"/>
	<path class="st1" d="M832.2,105.1c6.4,0,12.2,1,17.4,3c5.3,2,9.8,4.2,13.6,6.6c4.5,2.8,8.4,5.9,11.9,9.3V41.5h23v192.8h-23v-19.6
		c-1.2,1.7-2.9,3.8-5.2,6.2c-2.2,2.4-5.1,4.7-8.7,7c-3.5,2.2-7.7,4.2-12.5,5.8c-4.8,1.6-10.3,2.5-16.5,2.5c-9.3,0-17.7-1.8-25.2-5.4
		c-7.5-3.6-13.9-8.5-19.3-14.6c-5.3-6.1-9.4-13.2-12.3-21.2c-2.8-8-4.3-16.4-4.3-25.2c0-8.4,1.4-16.6,4.3-24.4
		c2.8-7.8,6.9-14.7,12.3-20.7c5.3-5.9,11.8-10.7,19.3-14.2C814.5,106.8,822.9,105.1,832.2,105.1z M832.2,214.6
		c5.3,0,10.6-0.9,15.6-2.8c5.1-1.9,9.6-4.7,13.7-8.4c4-3.7,7.3-8.4,9.8-14.1c2.5-5.7,3.7-12.3,3.7-19.9c0-7.1-1.2-13.3-3.6-18.6
		c-2.4-5.3-5.6-9.8-9.6-13.3c-4-3.5-8.5-6.2-13.7-8c-5.2-1.8-10.5-2.7-16-2.7c-6.2,0-11.7,1.3-16.4,4c-4.7,2.7-8.7,6.1-11.8,10.2
		c-3.1,4.1-5.5,8.7-7.1,13.7c-1.6,5-2.5,9.8-2.5,14.5c0,5,0.7,10.2,2.2,15.5c1.5,5.3,3.7,10.2,6.8,14.6c3.1,4.4,7,8.1,11.8,11
		C820,213.2,825.7,214.6,832.2,214.6z"/>
	<path class="st1" d="M1029.6,209c-6.9,8.3-14.7,14.7-23.5,19.4c-8.8,4.7-18.6,7-29.5,7c-10.2,0-19.1-1.6-26.7-4.9
		c-7.7-3.3-14.1-7.8-19.3-13.6c-5.2-5.8-9-12.6-11.6-20.5c-2.6-7.9-3.9-16.5-3.9-25.8c0-8.8,1.3-17.1,3.9-25.1
		c2.6-7.9,6.5-14.9,11.6-20.9c5.2-6,11.6-10.8,19.3-14.3c7.7-3.5,16.6-5.3,26.7-5.3c9.3,0,17.7,1.8,25.3,5.4c7.6,3.6,14,8.6,19.3,15
		c5.3,6.4,9.3,14,12.3,22.7c2.9,8.8,4.4,18.3,4.4,28.4H937.7c0.2,5.7,1.1,10.9,2.8,15.6c1.7,4.7,4.2,8.8,7.5,12.3
		c3.3,3.4,7.3,6.2,12.1,8.1c4.8,2,10.3,3,16.5,3c6,0,11.5-1.1,16.3-3.2c4.8-2.2,8.9-4.6,12.1-7.4c3.8-3.1,7.1-6.6,10.1-10.6
		L1029.6,209z M976.4,125.2c-5.5,0-10.5,0.9-14.9,2.7c-4.4,1.8-8.2,4.2-11.5,7.1c-3.3,2.9-5.9,6.3-7.9,10.1c-2,3.8-3.2,7.7-3.7,11.6
		h74.7c-1-4.3-2.7-8.4-4.9-12.3c-2.2-3.9-5-7.2-8.1-10.1c-3.2-2.8-6.8-5.1-10.7-6.7C985.4,126,981.1,125.2,976.4,125.2z"/>
	<path class="st1" d="M1070,138.4c0,2.1,0.7,4,2.2,5.9c1.5,1.9,3.4,3.7,5.8,5.3c2.4,1.6,5.3,3.3,8.5,4.9c3.3,1.6,6.6,3.2,10.1,4.8
		c4.7,2.1,9.4,4.4,14.3,6.8c4.9,2.5,9.3,5.3,13.3,8.4c4,3.1,7.2,6.7,9.7,10.9c2.5,4.1,3.7,8.9,3.7,14.2c0,10.5-4,19.1-12.1,25.8
		c-8.1,6.7-19.3,10.1-33.6,10.1c-7.2,0-13.8-0.8-19.8-2.3c-5.9-1.6-11.1-3.3-15.4-5.3c-4.3-2-7.6-3.8-9.8-5.4
		c-2.2-1.6-3.4-2.5-3.4-2.7l9-17.3c2.1,1,4.7,2.2,7.8,3.6c3.1,1.4,6.4,2.6,9.9,3.7c3.5,1.1,7.1,2.1,10.9,3c3.7,0.9,7.3,1.3,10.7,1.3
		c6,0,10.9-1.2,14.7-3.6c3.8-2.4,5.7-6,5.7-10.9c0-4.1-2.3-7.5-7-10.2c-4.7-2.7-10.3-5.5-16.8-8.4l-3.4-1.8v0.3
		c-4.5-2.1-8.9-4.2-13.3-6.5c-4.4-2.2-8.4-5-12-8.1c-3.6-3.2-6.5-7-8.8-11.4c-2.2-4.4-3.4-9.8-3.4-16.2c0-10.2,3.7-18.4,11-24.7
		c7.3-6.3,17.6-9.4,30.9-9.4c5.7,0,10.9,0.6,15.5,1.7c4.7,1.1,8.7,2.4,12.1,3.7c4,1.6,7.6,3.3,10.9,5.2l-9.6,18.1
		c-3.1-1.5-7.3-3.2-12.7-5c-5.3-1.8-10.8-2.7-16.3-2.7c-6,0-10.8,1.4-14.3,4.1C1071.7,131.1,1070,134.4,1070,138.4z"/>
	<path class="st1" d="M1145.9,41.5h22.7V234h-22.7V41.5z M1269.7,234.3h-33.1l-70.8-71.1l57.9-57.9h32.8l-57.9,57.9L1269.7,234.3z"
		/>
</g>
</svg>
